<?xml version="1.0" encoding="UTF-8"?>
<svg width="46px" height="40px" viewBox="0 0 46 40" version="1.1" xmlns="http://www.w3.org/2000/svg" xmlns:xlink="http://www.w3.org/1999/xlink">
    <!-- Generator: Sketch 41.2 (35397) - http://www.bohemiancoding.com/sketch -->
    <title>noun_479928_cc</title>
    <desc>Created with Sketch.</desc>
    <defs></defs>
    <g id="Page-1" stroke="none" stroke-width="1" fill="none" fill-rule="evenodd">
        <g id="Option-E-Mobile" transform="translate(-24.000000, -970.000000)" fill="#F40026">
            <g id="noun_479928_cc" transform="translate(24.000000, 969.000000)">
                <g id="Group">
                    <g transform="translate(0.000000, 0.787765)" id="Group-11">
                        <g>
                            <g>
                                <g>
                                    <path d="M44.0616963,14.9181962 C44.0616963,17.12529 42.2483707,18.9141416 40.0110807,18.9141416 C38.5434077,18.8759581 36.9915718,18.0892008 36.3956813,16.6977238 L37.7179822,16.2812575 C38.111342,17.1750173 39.1226457,17.493805 40.0110807,17.5821598 C41.5026074,17.5821598 42.7114911,16.3895921 42.7114911,14.9181962 C42.6817866,14.0186644 42.2722244,13.2390111 41.5210602,12.7093263 C41.3126785,12.5623643 41.0489384,12.513525 40.8131026,12.4154024 L40.5552134,12.3083998 L40.0110807,12.2542326 C39.8297031,12.2724363 39.6483256,12.2901961 39.466948,12.3083998 C39.4655978,12.3088438 39.4642476,12.3097318 39.4628974,12.3101758 L39.4628974,12.3101758 C38.1365458,12.6924546 37.446591,13.5879903 37.3106703,14.9181962 L37.3201218,15.0083269 L37.3201218,15.0083269 C37.3957332,15.7524608 37.3066197,15.3173467 37.7179822,16.2812575 L36.3956813,16.6977238 L27.2034843,19.5925643 C27.122922,19.1907498 27.1634282,19.396763 27.083316,18.9745247 C27.1634282,19.396763 27.122922,19.1907498 27.2034843,19.5925643 L27.2034843,19.5925643 C27.2358892,19.7492941 27.207985,19.6076601 27.2291382,20.0241264 L27.2291382,20.0241264 C27.2291382,22.2312202 25.4158126,24.0200718 23.1785226,24.0200718 C21.6397387,24.0227358 20.5186183,23.1374119 19.6468358,21.9728158 L19.6468358,21.9728158 L19.6468358,21.9723718 L10.0518276,24.9941945 L8.74977975,25.4044449 C8.72457592,24.8898559 8.60125718,24.5564165 8.29206019,24.150606 L8.29206019,24.150606 C7.72452394,23.3851605 6.994513,23.0903485 6.07592339,22.9988857 C4.58439672,22.9988857 3.375513,24.1914534 3.375513,25.6628493 C3.40386731,26.566821 3.8183803,27.3362625 4.56594391,27.8717192 C4.75812312,28.0093573 5.00296033,28.0533127 5.2212435,28.1438874 L5.2468974,29.5549002 C3.3156539,29.2090289 2.12027223,27.519188 2.0253078,25.6628493 C2.0253078,23.4561995 3.83863338,21.6669039 6.07592339,21.6669039 C7.62415869,21.663352 8.74527907,22.5611077 9.61976197,23.7323637 L9.61976197,23.7323637 L19.2066689,20.712761 L19.207119,20.714537 L19.2066689,20.713205 L19.1621122,20.5014199 C19.1297073,20.19906 19.1423092,20.3584538 19.127907,20.0241264 C19.127907,17.8174765 20.9412326,16.028181 23.1785226,16.028181 C24.6975034,16.0628125 26.2151341,16.8930812 26.8236265,18.3143058 L26.8236265,18.3143058 L26.925342,18.5482906 L26.8236265,18.3138618 L36.0014213,15.4234613 C35.9613653,15.2587395 35.9672161,15.0864699 35.9604651,14.9181962 C35.9874692,12.8354206 37.4735951,11.3702406 39.4628974,10.9697581 L39.4628974,8.47717617 C37.6338194,8.20633987 36.38758,6.9014417 36.025275,5.15032963 L37.4015841,5.15032963 C37.8264487,6.44101999 38.2661655,6.63992927 39.4628974,7.13720248 L39.4646977,7.13764647 L39.466948,7.13853446 C39.6483256,7.15673821 39.8297031,7.17494196 40.0110807,7.19270172 C40.6479275,7.12921059 40.3873379,7.20824151 40.8131026,7.03153192 C42.0206361,6.67234083 42.5904227,5.71286994 42.7114911,4.52873812 C42.7114911,3.05734222 41.5026074,1.86477452 40.0110807,1.86477452 C39.105093,1.89674208 38.3003707,2.29322867 37.7719904,3.03913847 C37.6081655,3.27045931 37.5505568,3.55861138 37.4393899,3.81834783 C37.3165212,4.03812482 37.3327237,4.28676143 37.3106703,4.52873812 C37.3687291,5.09616237 37.2949179,4.89991705 37.4015841,5.15032963 L26.9392941,5.15032963 C26.6129945,7.14386239 24.9486416,8.42522888 22.9534884,8.52468352 C20.9002763,8.4967119 19.3673434,7.08259122 18.9676826,5.15032963 L10.0617291,5.15032963 C10.0819822,5.06863474 10.0887332,5.02379135 10.0617291,5.15032963 L10.0617291,5.15032963 C9.73542955,7.14386239 8.07107661,8.42522888 6.07592339,8.52468352 C4.02271135,8.4967119 2.48977839,7.08259122 2.09011765,5.15032963 L0.450068399,5.15032963 L0.450068399,3.81834783 L2.10857045,3.81834783 L2.29579891,3.11994537 C3.02851026,1.48915565 4.3382093,0.749017765 6.07592339,0.53279272 C8.06477565,0.562984307 9.65081669,1.91982977 10.0432763,3.81834783 L10.0432763,3.81834783 L10.0432763,3.81834783 L18.9861354,3.81834783 L19.1733639,3.11994537 C19.9060752,1.48915565 21.2157743,0.749017765 22.9534884,0.53279272 C24.9423406,0.562984307 26.5283817,1.91982977 26.9208413,3.81834783 L26.9208413,3.81834783 L36.0437278,3.81834783 C36.4420383,1.8074993 38.0609343,0.775213407 40.0110807,0.53279272 C42.2483707,0.53279272 44.0616963,2.32208827 44.0616963,4.52873812 C44.0292914,6.43169612 42.7056402,8.04517007 40.8131026,8.42611687 L40.8131026,11.0208174 L41.506658,11.2099588 C43.1219535,11.9443248 43.848814,13.2323512 44.0616963,14.9181962 Z M8.77633379,4.52873812 C8.71512449,3.92934631 8.79208618,4.15755919 8.64761423,3.81834783 L8.64761423,3.81834783 C8.27720793,2.58892862 7.32396306,1.98909282 6.07592339,1.86477452 C5.1699357,1.89674208 4.36521341,2.29322867 3.83683311,3.03913847 C3.67300821,3.27045931 3.61539945,3.55861138 3.50423256,3.81834783 C3.3597606,4.15755919 3.4367223,3.92934631 3.375513,4.52873812 C3.43357182,5.09616237 3.3597606,4.89991705 3.46642681,5.15032963 C3.84493434,6.42148426 4.77522572,7.06349948 6.07592339,7.19270172 C6.97561012,7.15895818 7.79518468,6.76868751 8.31501368,6.01833777 C8.49459097,5.75904531 8.56210123,5.43981367 8.68541997,5.15032963 L8.68541997,5.15032963 L8.73672777,5.02734331 C8.75653078,4.86173357 8.76148153,4.69479185 8.77633379,4.52873812 Z M10.0495773,24.9817626 C9.97306566,24.5959319 10.0180725,24.7655376 9.92670862,24.4698376 C10.0167223,24.7659816 9.97171546,24.5963759 10.0495773,24.9817626 Z M10.1161874,4.78003869 L10.1031354,4.92611269 C10.1112367,4.86794948 10.1044856,4.91634482 10.1161874,4.78003869 Z M19.4168509,21.5004062 L19.2944323,21.1074716 C19.3160356,21.2442217 19.3556416,21.3760879 19.4168509,21.5004062 Z M25.6538988,4.52873812 C25.5926895,3.92934631 25.6696512,4.15755919 25.5251792,3.81834783 C25.1547729,2.58892862 24.201528,1.98909282 22.9534884,1.86477452 C22.0475007,1.89674208 21.2427784,2.29322867 20.7143981,3.03913847 C20.5505732,3.27045931 20.4929644,3.55861138 20.3817975,3.81834783 L20.3817975,3.81834783 C20.2373256,4.15755919 20.3142873,3.92934631 20.253078,4.52873812 C20.3111368,5.09616237 20.2373256,4.89991705 20.3439918,5.15032963 C20.7224993,6.42148426 21.6527907,7.06349948 22.9534884,7.19270172 C23.8531751,7.15895818 24.6727497,6.76868751 25.1925787,6.01833777 C25.372156,5.75904531 25.4396662,5.43981367 25.562985,5.15032963 L25.562985,5.15032963 L25.6138427,5.02734331 C25.6340958,4.86173357 25.6390465,4.69523584 25.6538988,4.52873812 L25.6538988,4.52873812 Z M25.878933,20.0241264 L25.8775828,20.0103626 L25.8775828,20.0103626 C25.7961204,19.2151694 25.8928851,19.6489515 25.5013256,18.7307721 L25.5013256,18.7307721 L25.3298495,18.4075445 C24.8140711,17.6864983 24.0030479,17.5035728 23.1785226,17.3601628 C21.6869959,17.3601628 20.4781122,18.5527305 20.4781122,20.0241264 L20.5064665,20.3033986 C20.5204186,20.783356 20.6900944,21.1780666 20.9790383,21.5527975 L20.9794884,21.5527975 C21.5398235,22.3102512 22.2707346,22.5979592 23.1785226,22.68809 C24.6700492,22.68809 25.878933,21.4955223 25.878933,20.0241264 Z M26.9937524,4.78003869 L26.9807004,4.92611269 C26.9888016,4.86794948 26.9820506,4.91634482 26.9937524,4.78003869 Z M35.9843187,4.15267526 C35.979368,4.17842691 35.9811683,4.16466309 35.979368,4.19396669 L35.9843187,4.15267526 Z M40.5201081,10.9622102 L40.4251436,10.9431185 L40.3207278,10.9377905 L40.5201081,10.9622102 Z M40.8131026,8.42611687 L40.5453119,8.48161611 C40.6348755,8.46652031 40.7244391,8.4452086 40.8131026,8.42611687 Z" id="Shape"></path>
                                    <path d="M44.1742134,14.9181962 C44.1742134,17.1865612 42.3104802,19.02514 40.0079302,19.02514 C38.4484432,18.957209 37.0761847,18.2041953 36.3407729,16.831366 L27.3308536,19.6689312 L27.333104,19.7119987 C27.3340041,19.8416449 27.3322038,19.7963575 27.3344542,19.8487488 L27.3416553,19.8451968 L27.3416553,20.0241264 C27.3416553,22.2924914 25.477922,24.1310703 23.1785226,24.1310703 C21.6451395,24.1324023 20.5186183,23.2275426 19.60813,22.10113 L10.0860328,25.099865 L8.78398495,25.5101154 L8.64491382,25.5540708 L8.63771272,25.4097728 C8.61340903,24.9191595 8.49909166,24.6065878 8.20114637,24.2158731 C7.69121888,23.5281265 7.03456908,23.2057869 6.07592339,23.1098842 C4.64650616,23.1098842 3.4880301,24.2531686 3.4880301,25.6592974 C3.5150342,26.5290815 3.9124446,27.2669994 4.63210397,27.7820324 C4.72616826,27.8495195 4.81618194,27.886815 5.03266484,27.958298 C5.14923256,27.9969254 5.20099042,28.0151292 5.26490014,28.0417688 L5.33286047,28.0697405 L5.3337606,28.1421115 L5.3594145,29.5526802 L5.36211491,29.6880983 L5.22709439,29.6641227 C3.3242052,29.3235793 2.01540629,27.6697019 1.9127907,25.6628493 C1.9127907,23.3949283 3.77652394,21.5559055 6.07547332,21.5559055 C7.61695759,21.5545735 8.74617921,22.470977 9.65936799,23.6031615 L19.0761491,20.637726 L19.0500451,20.5129637 C19.0531956,20.5409353 19.0279918,20.3118345 19.0261915,20.2820869 C19.0243912,20.2581112 19.0185404,20.0991614 19.0153899,20.0241264 C19.0153899,17.7562054 20.8791231,15.9171825 23.181223,15.9171825 C24.7780657,15.9788977 26.1381724,16.7820827 26.878985,18.1802196 L35.8745021,15.3470943 C35.854249,15.2307679 35.8659508,15.3115748 35.8528988,15.1042296 C35.8519986,15.0664901 35.8519986,15.0664901 35.8510985,15.0296386 C35.8497483,14.9754714 35.8492982,14.9519397 35.847948,14.9168642 C35.9190588,12.7919092 37.3696293,11.4372837 39.3503803,10.8862872 L39.3503803,8.56508697 C37.5334542,8.2622831 36.4109836,6.94406512 35.940212,5.26132811 L27.0266074,5.26132811 C26.6273967,7.32945185 24.944591,8.38349345 22.9521382,8.635682 C20.8431176,8.562423 19.4420547,7.18781779 18.8835198,5.26132811 L10.1490424,5.26132811 C9.74983174,7.32945185 8.06702599,8.38349345 6.07457319,8.635682 C3.96555267,8.562423 2.56448974,7.18781779 2.00595486,5.26132811 L0.450068399,5.26132811 L0.3375513,5.26132811 L0.3375513,3.70734934 L2.02215732,3.70734934 L2.19318331,3.07510198 C2.90564159,1.48826766 4.17753488,0.657111021 6.07772367,0.421794237 C8.13768673,0.499493175 9.56845417,1.81149525 10.1274391,3.70734934 L18.8997223,3.70734934 L19.0707483,3.07510198 C19.7832066,1.48826766 21.0550999,0.657111021 22.9552886,0.421794237 C25.0152517,0.499493175 26.4460192,1.81149525 27.0050041,3.70734934 L35.9586648,3.70734934 C36.3970315,1.67918506 38.0964897,0.771217462 40.0110807,0.421794237 C42.3104802,0.421794237 44.1742134,2.26081711 44.1742134,4.5305141 C44.0918509,6.51871893 42.8186074,7.95725927 40.9256197,8.50869974 L40.9256197,10.9364586 L41.5539152,11.1091722 C43.1219535,11.8222265 43.941528,13.0702934 44.1733133,14.9044323 L44.1742134,14.9181962 Z M43.9491792,4.52873812 C43.9491792,2.38335943 42.1858112,0.643791203 40.0250328,0.642903215 C37.9511176,0.900863691 36.5167497,2.00907255 36.1544446,3.83965953 L36.1364419,3.92934631 L36.0437278,3.92934631 L26.9212914,3.92934631 L26.9208413,3.92934631 L26.8290274,3.92934631 L26.8105746,3.84054752 C26.4248659,1.97399703 24.8685294,0.673094803 22.9674405,0.642903215 C21.1572654,0.86800814 19.9551327,1.6538774 19.2822804,3.14836098 L19.095052,3.84676344 L19.0729986,3.92934631 L18.9861354,3.92934631 L10.0882832,3.92934631 L9.97351573,4.03768083 L9.95146238,3.92934631 L9.93075923,3.92934631 L9.93075923,3.83299963 C9.49599316,1.91494583 8.00581669,0.834264601 6.08987551,0.642903215 C4.27970041,0.86800814 3.07756772,1.6538774 2.40471546,3.14836098 L2.217487,3.84676344 L2.19543365,3.92934631 L0.562585499,3.92934631 L0.562585499,5.03933114 L2.09056772,5.03933114 L2.18238167,5.03933114 L2.2003844,5.12812993 C2.60049521,7.06172351 4.12757729,8.3870454 6.0700725,8.41368504 C8.02471956,8.28537079 9.44918605,7.09724302 9.92310807,5.2400164 L9.95101231,5.12857392 L9.96586457,5.03933114 L9.9726156,5.03933114 C9.9726156,5.03844315 9.97306566,5.03799916 9.97351573,5.03711117 C9.97981669,5.02467934 9.98656772,5.01269151 9.99331874,5.00025968 L10.1476922,5.03933114 L18.9676826,5.03933114 L19.0599466,5.03933114 L19.0779494,5.12812993 C19.4780602,7.06172351 21.0051423,8.3870454 22.9476375,8.41368504 C24.9499918,8.31423039 26.5193803,7.02087607 26.8281272,5.13256987 L26.8434295,5.03933114 L26.9392941,5.03933114 L37.2391094,5.03933114 C37.2238071,4.9909358 37.2287579,5.01624346 37.2256074,4.96296419 C37.2251573,4.96074422 37.2238071,4.87638537 37.2220068,4.83509393 C37.2184063,4.75783899 37.2112052,4.66326828 37.1986033,4.51897025 C37.2022038,4.48123077 37.2044542,4.44482327 37.2080547,4.38621607 C37.2085048,4.37600421 37.2085048,4.37600421 37.2089549,4.36579235 C37.2260575,4.06343248 37.2499111,3.92801433 37.3358741,3.77528041 C37.3651286,3.70646135 37.3862818,3.64874214 37.4321888,3.51643195 C37.5285034,3.23715977 37.5807114,3.11550543 37.6797264,2.97564734 C38.2184583,2.21552973 39.0470342,1.78751958 40.0110807,1.75377604 C41.5647168,1.75377604 42.8240082,2.99607106 42.8235581,4.53983797 C42.6885376,5.85894394 42.0278372,6.78644727 40.8567592,7.13409452 C40.7978003,7.15851419 40.6605294,7.21712139 40.6407264,7.22511328 C40.5858181,7.24731297 40.5511628,7.25796883 40.5084063,7.26462874 C40.4859029,7.26773669 40.2176621,7.28372048 39.999829,7.30325621 C39.8071997,7.28505246 39.6145705,7.26285276 39.4223912,7.24065306 L39.4192408,7.23932108 C38.2963201,6.83129066 37.7206826,6.37530889 37.3223721,5.26132811 L36.1728974,5.26132811 C36.5464542,6.96670881 37.8169973,7.99366677 39.4795499,8.36750967 L39.5754145,8.38127348 L39.5754145,11.0607769 L39.4854008,11.0785366 C37.4623434,11.4856791 36.098186,12.9659548 36.0729822,14.9137562 C36.0743324,14.9448358 36.0747825,14.9696995 36.0761327,15.0243107 C36.0770328,15.0611622 36.0770328,15.0611622 36.077933,15.0975697 C36.0819836,15.2281039 36.0905349,15.3146827 36.110788,15.3977096 L36.1350917,15.4980522 L36.0356265,15.5291318 L26.9757497,18.3826808 L27.0054542,18.4506119 L27.0288577,18.5047792 L27.0288577,18.5047792 L26.8218263,18.592246 L26.7201108,18.3573732 C26.1543748,17.0360472 24.7263078,16.174255 23.1785226,16.1391795 C21.003342,16.1391795 19.2404241,17.8787477 19.2404241,20.0196865 C19.2435746,20.0933894 19.2489754,20.2474553 19.2503256,20.2674351 C19.2521259,20.2918547 19.2759795,20.5076358 19.2723789,20.4787762 L19.3173858,20.6910053 L19.3173858,20.6923373 L19.2075691,20.7154249 L19.2408741,20.8184315 L9.62021204,23.8433622 L9.62021204,23.8433622 L9.56305335,23.8433622 L9.52929822,23.7980748 C8.54229822,22.4763049 7.43783037,21.7747945 6.07592339,21.7779024 C3.90119289,21.7779024 2.1378249,23.5174707 2.1378249,25.6570774 C2.26474419,27.4725686 3.34085773,28.9177689 5.13167989,29.4083822 L5.11052668,28.2202544 C5.0475171,28.1962787 5.09657456,28.2149265 4.96155404,28.1687511 C4.72301778,28.0901642 4.61905198,28.0470968 4.50023393,27.9618499 C3.72431601,27.4059695 3.29225034,26.6045605 3.2629959,25.6628493 C3.2629959,24.1301823 4.52228728,22.8878873 6.0871751,22.8883313 C7.1169316,22.9908939 7.83164022,23.3420931 8.38207387,24.0835629 C8.65841587,24.4196663 8.80018741,24.8316927 8.84699453,25.2574829 L9.922658,24.9187155 C9.89655404,24.7877373 9.91005609,24.8552244 9.88260192,24.7166983 C9.85334747,24.6079198 9.87315048,24.6794028 9.81959234,24.5040252 L9.81914227,24.5022492 L9.8186922,24.5018052 L10.034275,24.4374261 C10.0855828,24.5994839 10.0950342,24.6310074 10.1035855,24.6678589 C10.1296895,24.8037211 10.1179877,24.7428939 10.1386908,24.8503404 L19.6126306,21.8667012 L19.6783406,21.8462775 L19.726948,21.8942288 L19.7372996,21.9066607 C20.7161984,23.2146668 21.8215663,23.9117373 23.1785226,23.9090733 C25.4045609,23.8735538 27.0072544,22.1650651 27.1166211,20.0259024 C27.1071696,19.7985775 27.10942,19.903804 27.1080698,19.7102227 C27.1053694,19.6609394 27.1085198,19.6906869 27.0945677,19.6205359 L27.0932175,19.61432 L27.0932175,19.61432 C27.0891669,19.5952283 27.0392093,19.3461477 27.0329083,19.3119601 C27.0266074,19.2813245 26.9870014,19.0690954 26.9730492,18.9945045 L27.1940328,18.954101 C27.2183365,19.0828593 27.2039343,19.0051603 27.2376895,19.1858658 C27.2471409,19.2360372 27.2417401,19.2080655 27.2538919,19.2702247 C27.2732449,19.3687913 27.2615431,19.3092962 27.2894473,19.4491542 L36.3614761,16.5920533 L37.565409,16.2128825 C37.4762955,16.0068693 37.3799808,15.804408 37.2877168,15.6001708 C37.2652134,15.5397877 37.2544118,15.4873964 37.2445103,15.3977096 C37.2404596,15.3621901 37.2184063,15.1211014 37.2080547,15.0194268 L37.1986033,14.9070963 C37.4047346,13.4729959 37.7683899,13.1102529 38.9543201,12.3736669 L39.4196908,12.2076132 C39.420591,12.2071692 39.420591,12.2071692 39.4214911,12.2067252 L39.4232914,12.2062812 L39.4313926,12.2036172 L39.5763146,12.1614378 L39.5763146,12.1858575 C39.7248372,12.1712057 39.8738098,12.1574419 40.0223324,12.1436781 L40.59887,12.2062812 L40.8567592,12.3132838 C40.9188687,12.3390354 40.9710766,12.3572392 41.0912449,12.3971986 C41.3468837,12.4824454 41.4585007,12.5290648 41.5863201,12.6187516 C42.3599877,13.1644201 42.7929535,13.9729331 42.8240082,14.9181962 C42.8240082,16.4508632 41.5647168,17.6931582 39.999829,17.6927142 C39.0623365,17.5990315 38.1347456,17.27314 37.663974,16.4148997 L36.5577059,16.7634349 C37.2076047,18.1042966 38.591565,18.6739408 40.0110807,18.8031431 C42.2335185,18.7676236 43.8393625,17.0626869 43.9487291,14.9248561 C43.7398974,13.2279113 42.9918837,12.1205904 41.4769535,11.3169614 L40.782948,11.1278199 L40.7005855,11.1056203 L40.7005855,8.56419898 C40.6411765,8.5770748 40.6771819,8.56952691 40.5916689,8.58639868 L40.5646648,8.59128261 L40.5219083,8.37328159 L40.7005855,8.3359861 L40.7005855,8.3355421 L40.782948,8.31867033 L40.789699,8.31733835 L40.789699,8.31733835 L40.7905992,8.31733835 C42.6219275,7.94882339 43.9172244,6.38774072 43.9491792,4.52873812 Z M8.88840082,4.53850599 C8.88480027,4.57979742 8.88164979,4.62286483 8.87759918,4.67880807 C8.87579891,4.70722368 8.87579891,4.70722368 8.87399863,4.73563929 C8.86409713,4.88704122 8.85869631,4.9549723 8.84069357,5.06952273 L8.78938577,5.19250905 L8.76418194,5.22980454 L8.7889357,5.19339704 C8.75608071,5.27065198 8.73222709,5.3350311 8.68091929,5.48243709 C8.57290287,5.79145687 8.51529412,5.92598703 8.40817784,6.08094091 C7.88294802,6.83883855 7.04537073,7.2672927 6.06467168,7.30325621 C4.67170999,7.1647301 3.73826813,6.45655978 3.36291108,5.19339704 C3.29315048,5.03000727 3.29315048,5.02956328 3.29045007,4.96296419 C3.29,4.96074422 3.28864979,4.87638537 3.28684952,4.83509393 C3.28324897,4.75783899 3.27604788,4.66371228 3.26344596,4.51763827 C3.28459918,4.31340106 3.2985513,4.04567272 3.29675103,4.06432047 C3.30395212,3.99727738 3.27829822,4.0621005 3.40071683,3.77528041 C3.42997127,3.70646135 3.45112449,3.64874214 3.49703146,3.51643195 C3.5933461,3.23715977 3.64555404,3.11550543 3.74456908,2.97564734 C4.28330096,2.21552973 5.11187688,1.78751958 6.0871751,1.75422003 C7.45088235,1.89008217 8.3888249,2.56939289 8.75112996,3.77528041 C8.87354856,4.0621005 8.84789466,3.99727738 8.85509576,4.06432047 C8.85329549,4.04567272 8.86724761,4.31340106 8.88840082,4.51763827 L8.88840082,4.53850599 Z M8.66336662,4.52918211 C8.65031464,4.38222012 8.63591245,4.23525813 8.63141176,4.08785214 C8.62781122,4.05499659 8.64581395,4.10072797 8.53959781,3.8498714 C8.20069631,2.72434677 7.3419658,2.10231127 6.07997401,1.975773 C5.18928865,2.00685258 4.42642271,2.4006752 3.92909713,3.1030736 C3.84628454,3.219844 3.79947743,3.32862252 3.70991382,3.58835897 C3.66265663,3.7251091 3.64015321,3.78638026 3.60819836,3.86141524 C3.50603283,4.10072797 3.52403557,4.05499659 3.52043502,4.08785214 C3.52313543,4.0616565 3.50918331,4.32805286 3.48758003,4.51763827 C3.50063201,4.64506453 3.50783311,4.74407518 3.51143365,4.82532607 C3.51368399,4.87016945 3.5150342,4.9549723 3.5150342,4.95408431 C3.5163844,4.98249992 3.51323393,4.97406403 3.57444323,5.11925005 C3.92729685,6.30426986 4.78242681,6.952501 6.07187278,7.08170324 C6.96750889,7.0479597 7.73892613,6.65369308 8.22229959,5.95573462 C8.31456361,5.82253644 8.36677155,5.69999412 8.46803694,5.41006608 C8.54949932,5.18806911 8.50764295,5.28707976 8.58865527,5.11125816 L8.58145417,5.1081502 L8.62466074,5.01402349 C8.63456224,4.93410458 8.639513,4.86883747 8.6494145,4.72098749 C8.65121477,4.69257188 8.65121477,4.69257188 8.65301505,4.66415627 C8.66021614,4.5669216 8.6566156,4.61220898 8.66336662,4.52918211 Z M10.2282544,4.78936256 L10.2282544,4.78980655 L10.2282544,4.79025055 C10.2224036,4.86350954 10.2246539,4.83021 10.2206033,4.88970519 C10.2197031,4.90480098 10.218803,4.9105729 10.2143023,4.94165248 L9.9910684,4.91634482 L10.0041204,4.77027082 L10.2282544,4.78936256 Z M19.5244172,21.4679947 L19.3155855,21.5488016 C19.2507756,21.4173794 19.207119,21.2753013 19.1832654,21.1247874 L19.4019986,21.07506 L19.5244172,21.4679947 Z M25.7785677,4.63929261 L25.7583146,4.63929261 L25.7551642,4.67880807 C25.7533639,4.70722368 25.7533639,4.70722368 25.7515636,4.73608329 C25.7416621,4.88748522 25.7362613,4.9549723 25.7182585,5.06952273 L25.6669508,5.19250905 L25.6417469,5.22980454 L25.6665007,5.19339704 C25.6336457,5.27065198 25.6097921,5.3350311 25.5584843,5.48243709 C25.4504679,5.79145687 25.3928591,5.92598703 25.2857428,6.08094091 C24.760513,6.83883855 23.9229357,7.2672927 22.9422367,7.30325621 C21.549275,7.1647301 20.6158331,6.45655978 20.2404761,5.19339704 C20.1707155,5.03000727 20.1707155,5.02956328 20.168015,4.96296419 C20.167565,4.96074422 20.1662148,4.87638537 20.1644145,4.83509393 C20.160814,4.75783899 20.1536129,4.66371228 20.1410109,4.51763827 C20.1621642,4.31340106 20.1761163,4.04567272 20.174316,4.06432047 C20.1815171,3.99727738 20.1558632,4.0616565 20.2782818,3.77528041 C20.3403912,3.61943854 20.3075363,3.70512937 20.3745964,3.51643195 C20.4709111,3.23715977 20.523119,3.11550543 20.6221341,2.97564734 C21.1608659,2.21552973 21.9894419,1.78751958 22.9647401,1.75422003 C24.3284473,1.89008217 25.2663899,2.56939289 25.6286949,3.77528041 C25.7511135,4.0621005 25.7254596,3.99727738 25.7326607,4.06432047 C25.7308605,4.04567272 25.7448126,4.31340106 25.7659658,4.51763827 L25.7785677,4.63929261 Z M25.5409316,4.52873812 C25.5278796,4.38222012 25.5134774,4.23525813 25.5089767,4.08785214 C25.5053762,4.05499659 25.5233789,4.10072797 25.4171628,3.8498714 C25.0782613,2.72434677 24.2195308,2.10231127 22.957539,1.975773 C22.0668536,2.00685258 21.3039877,2.4006752 20.8066621,3.1030736 C20.7238495,3.219844 20.6770424,3.32862252 20.5874788,3.58835897 C20.5402216,3.7251091 20.5177182,3.78638026 20.4857633,3.86141524 C20.4731614,3.93778219 20.4025007,4.00793324 20.398,4.08785214 C20.4007004,4.0616565 20.3867483,4.32805286 20.365145,4.51763827 C20.378197,4.64506453 20.3853981,4.74407518 20.3889986,4.82532607 C20.391249,4.87016945 20.3925992,4.9549723 20.3925992,4.95408431 C20.3939494,4.98249992 20.3907989,4.97406403 20.4520082,5.11925005 C20.8048618,6.30426986 21.6599918,6.952501 22.9494378,7.08170324 C23.8450739,7.0479597 24.6164911,6.65369308 25.0998646,5.95573462 C25.1921286,5.82253644 25.2443365,5.69999412 25.3456019,5.41006608 C25.4270643,5.18806911 25.3852079,5.28707976 25.4657702,5.11125816 L25.4590192,5.1081502 L25.5022257,5.01402349 C25.5121272,4.93410458 25.517078,4.86883747 25.5269795,4.72187548 C25.5287798,4.69301587 25.5287798,4.69301587 25.53058,4.66371228 C25.5377811,4.5669216 25.5341806,4.61176498 25.5409316,4.52873812 Z M25.9914501,20.0241264 C25.9914501,21.5567934 24.7321587,22.7990885 23.1672709,22.7986445 C22.2333789,22.7333774 21.4741135,22.3293429 20.8899248,21.6202846 L20.8894747,21.6202846 L20.8890246,21.6189526 L20.8885746,21.6185086 L20.8885746,21.6185086 C20.5748769,21.2451097 20.4466074,20.785576 20.3948495,20.3149424 L20.3655951,20.0241264 C20.3655951,18.4914593 21.6248865,17.2491643 23.1983256,17.2509403 C24.3685034,17.4547335 24.9621436,17.7011501 25.4293146,18.3560412 L25.6007907,18.6788248 L25.5926895,18.6925886 L25.6048413,18.6877047 C25.7124077,18.9394492 25.8955855,19.3306079 25.9126881,19.3821112 C25.9324911,19.4416063 25.9419425,19.4948856 25.951394,19.5930083 C25.951394,19.5930083 25.9761477,19.8673965 25.9896498,19.9992627 L25.9891997,19.9992627 L25.9896498,19.9997067 L25.991,20.0134705 L25.9914501,20.0241264 Z M25.7659658,20.0267904 L25.7655157,20.0214624 C25.7520137,19.8878203 25.7272599,19.613432 25.72771,19.614764 C25.7191587,19.5312931 25.7124077,19.4917777 25.6989056,19.4509302 C25.6003406,19.2258253 25.4981751,19.0029403 25.3996101,18.7778354 L25.2375855,18.4714796 C24.8226224,17.8911795 24.2753393,17.6638546 23.1785226,17.4711613 C21.7491053,17.4711613 20.5906293,18.6144457 20.5901792,20.0130265 L20.6189836,20.3002906 C20.6162832,20.7425086 20.8278153,21.1283393 21.0681518,21.4848664 L21.0704022,21.4875304 C21.5708782,22.1641771 22.2248276,22.4816328 23.1785226,22.5770915 C24.6894022,22.5202603 25.6210438,21.4475709 25.7659658,20.0267904 Z M27.1058194,4.78936256 L27.1058194,4.78980655 L27.1058194,4.79025055 C27.0999685,4.86350954 27.1022189,4.83021 27.0981683,4.88970519 C27.0972681,4.90480098 27.096368,4.9105729 27.0918673,4.94165248 L26.8686334,4.91634482 L26.8816854,4.77027082 L27.1058194,4.78936256 Z M36.0959357,4.16466309 L36.091435,4.20595453 L35.867301,4.18775078 C35.867751,4.17398697 35.867751,4.17398697 35.8691012,4.16066715 C35.8709015,4.14557135 35.8709015,4.14557135 35.8736019,4.13313952 L36.0959357,4.16466309 Z M39.4232914,7.24065306 L39.4223912,7.24065306 L39.4223912,7.24065306 L39.4232914,7.24065306 Z M40.5426115,10.8534317 L40.506606,11.0723207 L40.3067756,11.047901 L40.3265787,10.8267921 L40.4476471,10.83434 L40.5426115,10.8534317 Z M42.598974,4.52873812 C42.598974,3.11905738 41.4404979,1.975773 40.0151313,1.975773 C39.124446,2.00685258 38.36158,2.4006752 37.8642544,3.1030736 C37.7814419,3.219844 37.7346347,3.32862252 37.6450711,3.58835897 C37.597814,3.7251091 37.5753105,3.78638026 37.5379549,3.87207109 C37.4686443,3.99638939 37.4488413,4.10871986 37.4339891,4.37822418 C37.4330889,4.38843604 37.4330889,4.38843604 37.4326389,4.3986479 C37.4290383,4.45947507 37.4263379,4.49810254 37.4227373,4.51763827 C37.4357893,4.64506453 37.4429904,4.74407518 37.446591,4.82532607 C37.4488413,4.87016945 37.4501915,4.9549723 37.4501915,4.95408431 C37.460093,5.00825157 37.4519918,4.97939196 37.4771956,5.03933114 L37.4834966,5.03933114 L37.5073502,5.11125816 L37.5712599,5.26132811 L37.5604583,5.26132811 C37.8138468,6.26342242 38.6118181,6.64969714 39.4953023,7.02975595 C39.6636279,7.04618372 39.8315034,7.06394348 39.999829,7.08214723 C40.2041601,7.0621675 40.4642996,7.04662771 40.4742011,7.04485174 C40.4967045,7.04174378 40.5151573,7.03597186 40.5547633,7.01998808 C40.5727661,7.01288418 40.7086867,6.95472097 40.7806977,6.92541737 C41.868513,6.60174579 42.4734049,5.75327339 42.598974,4.52873812 Z M42.598974,14.9217481 C42.5701696,14.048856 42.1718591,13.3047222 41.4553502,12.7994571 C41.3518345,12.7266421 41.2537196,12.6857947 41.0192339,12.6076517 C40.8941149,12.5659163 40.8383064,12.5463806 40.769446,12.517521 L40.5439617,12.4189543 L40.0223324,12.364787 C39.750041,12.3918707 39.750041,12.3918707 39.5101546,12.4109624 L39.5079042,12.4118504 C39.5070041,12.4122944 39.5070041,12.4122944 39.506104,12.4127384 L39.4903516,12.4020825 L39.4944022,12.4162903 C38.2369111,12.7794774 37.5568577,13.6177379 37.4227373,14.9070963 L37.4317387,14.9972271 C37.4425404,15.1006777 37.4645937,15.3404344 37.4681943,15.3732899 C37.4762955,15.4469929 37.4839466,15.4834004 37.4987989,15.5242479 C37.6099658,15.7604526 37.716632,15.9984334 37.8210479,16.2373021 C38.22971,17.0942104 39.1329973,17.3499509 40.0110807,17.4711613 C41.4404979,17.4711613 42.598974,16.3283209 42.598974,14.9217481 Z" id="Shape"></path>
                                    <g id="Group" transform="translate(1.800274, 31.079575)">
                                        <path d="M8.22454993,5.15032963 C7.87664706,7.06394348 6.16818741,8.25295923 4.27564979,8.34708595 C2.03835978,8.34708595 0.2250342,6.55823439 0.2250342,4.35114055 C0.257439124,2.44196663 1.58649111,0.833820607 3.48262927,0.451985824 L3.50738304,1.83413894 C2.28409713,2.19555 1.69810807,3.14791699 1.5752394,4.35114055 C1.5752394,5.82253644 2.78412312,7.01510415 4.27564979,7.01510415 C5.18838851,6.98580055 5.97690834,6.58132207 6.51474008,5.84074019 C6.66236252,5.63783496 6.71141997,5.38031848 6.80953488,5.15032963 L8.22454993,5.15032963 Z" id="Shape"></path>
                                        <path d="M8.35912038,5.03933114 L8.33526676,5.16986536 C7.99231464,7.05817156 6.31716005,8.35685381 4.27564979,8.45808443 C1.97625034,8.45808443 0.1125171,6.61950555 0.1125171,4.34936457 C0.145822161,2.38158346 1.51808071,0.733921972 3.46012585,0.34320731 L3.59244596,0.316567674 L3.59514637,0.450209848 L3.61990014,1.83236296 L3.62170041,1.91627782 L3.53978796,1.94069748 C2.43036936,2.26836501 1.81467579,3.11683741 1.6877565,4.35114055 C1.6877565,5.76126528 2.84623256,6.90410566 4.27204925,6.90410566 C5.15688372,6.87569005 5.90984815,6.48319941 6.4233762,5.77591708 C6.49673735,5.67513046 6.5372435,5.57967176 6.6155554,5.35101488 C6.65741176,5.22891655 6.67676471,5.1743053 6.70556908,5.10726221 L6.73482353,5.03933114 L6.80953488,5.03933114 L8.22454993,5.03933114 L8.35912038,5.03933114 Z M8.07737756,5.26132811 L6.88604651,5.26132811 C6.85859234,5.33103516 6.87929549,5.27775588 6.82888782,5.42160992 C6.74337483,5.6715785 6.69701778,5.78035702 6.60655404,5.90511931 C6.05206977,6.66878888 5.23384542,7.09546705 4.27564979,7.12610263 C2.72201368,7.12610263 1.4627223,5.8838076 1.46317237,4.3400407 C1.57793981,3.12260933 2.23278933,2.19333003 3.39351573,1.75865997 L3.37281259,0.59939181 C1.50592886,1.0393898 0.520729138,2.56051301 0.3375513,4.35114055 C0.3375513,6.49696323 2.10091929,8.23608746 4.27024897,8.23608746 C6.1213803,8.11088117 7.58230233,7.03641585 8.07737756,5.26132811 Z" id="Shape"></path>
                                    </g>
                                    <g id="Group" transform="translate(4.950752, 24.419666)">
                                        <path d="M40.506156,11.8097946 L37.5942134,11.8097946 C37.7764911,11.3822285 37.6963789,11.6424089 37.7607387,11.0110495 L37.7062804,10.4778128 L37.7062804,10.4778128 C37.3192216,9.16581076 36.4132339,8.48161611 35.0603283,8.34708595 C34.1655923,8.38260546 33.3334159,8.7675482 32.821238,9.5214499 C32.6857674,9.83934956 32.5502969,10.1568052 32.4148263,10.4742609 C32.4148263,10.4755929 32.4143762,10.4769248 32.4143762,10.4782568 L32.3599179,11.0110495 C32.4242777,11.6424089 32.3441655,11.3822285 32.5264432,11.8102386 L22.1766703,11.8097946 L22.1766703,11.8102386 L20.7616553,11.8102386 C20.943933,11.3822285 20.8638208,11.6424089 20.9281806,11.0110495 L20.8737223,10.4782568 C20.4866635,9.16581076 19.5806758,8.48161611 18.2277702,8.34708595 C17.3330342,8.38260546 16.5008577,8.7675482 15.9886799,9.5214499 C15.8532093,9.83934956 15.7177387,10.1568052 15.5822681,10.4742609 C15.5822681,10.4755929 15.5818181,10.4769248 15.5818181,10.4782568 L15.5273598,11.0110495 C15.5917196,11.6424089 15.5116074,11.3822285 15.6938851,11.8102386 L14.27887,11.8102386 L14.2212613,11.5402903 L14.27887,11.8102386 L5.07407114,11.8102386 L5.07407114,11.8102386 L3.65905609,11.8102386 C3.84133379,11.3822285 3.76122161,11.6424089 3.8255814,11.0110495 L3.77112312,10.4782568 C3.3327565,9.15071496 2.9425472,8.93004998 1.7062093,8.416349 L1.7062093,8.416349 C1.50142818,8.33154616 1.68280575,8.40258519 1.125171,8.34708595 C0.50047606,8.4092451 0.748913817,8.33154616 0.356904241,8.49404794 L0.332150479,7.11189482 L0.332150479,7.11189482 L0.296145007,5.13523383 L0.270941176,3.72422111 C0.748913817,3.9226864 0.469421341,3.8418795 1.125171,3.90714661 L1.62339672,3.85786329 C3.00195622,3.6443022 3.62125034,2.48947398 3.8255814,1.24318301 L3.79902736,0.984778544 L5.10107524,0.57452815 C5.18253762,0.968350768 5.15058276,0.746353802 5.17578659,1.24318301 C5.14923256,3.34371831 3.64645417,4.79469049 1.64770041,5.19694899 L1.68145554,7.06438747 C1.48567579,7.02487201 1.58964159,7.03952381 1.36820793,7.02487201 C1.58964159,7.03952381 1.48567579,7.02487201 1.68145554,7.06438747 L1.68145554,7.06438747 C3.58569494,7.36186341 4.65325718,8.73513664 5.12897948,10.4782568 L14.2239617,10.4782568 C14.1704036,10.7362173 14.2001081,10.5603957 14.1771546,11.0110495 L14.1897565,11.2903217 L14.1771546,11.0110495 C14.2001081,10.5603957 14.1704036,10.7362173 14.2239617,10.4782568 C14.653777,8.31867033 16.0975964,7.28549645 18.2277702,7.01510415 C20.3862982,7.08259122 21.6829453,8.54199928 22.2315787,10.4778128 L31.0565198,10.4778128 L31.2356471,9.75010677 C31.9418044,8.03806617 33.2582544,7.24376102 35.0603283,7.01510415 C37.1774501,7.04174378 38.6581751,8.51269568 39.0641368,10.4782568 L40.506156,10.4778128 L40.506156,11.8097946 Z M5.13483037,11.5163146 L5.07587141,11.8026907 C5.13348016,11.5322984 5.12042818,11.6290891 5.13483037,11.5163146 Z M5.15508345,10.6025751 L5.15508345,10.6025751 L5.1415814,10.537308 L5.15508345,10.6025751 Z M5.17533653,11.0168215 L5.1600342,11.3165174 C5.17488646,11.200191 5.16318468,11.2992016 5.17533653,11.0168215 Z M22.2374295,11.5163146 L22.1784706,11.8026907 C22.2360793,11.5322984 22.2230274,11.6286451 22.2374295,11.5163146 Z M22.2576826,10.6025751 L22.2576826,10.6025751 L22.2437305,10.536864 L22.2576826,10.6025751 Z M22.2779357,11.0172655 L22.2626334,11.3165174 C22.2774856,11.200191 22.2657839,11.2992016 22.2779357,11.0172655 Z M39.0699877,11.5163146 L39.0105787,11.8035787 C39.0686375,11.5322984 39.0555855,11.6290891 39.0699877,11.5163146 Z M39.0902408,10.6025751 L39.0902408,10.6025751 L39.0794391,10.5510718 L39.0902408,10.6025751 Z M39.1104938,11.0168215 L39.0951915,11.3165174 C39.1100438,11.200191 39.098342,11.2992016 39.1104938,11.0168215 Z" id="Shape"></path>
                                        <path d="M40.6186731,11.9207931 L37.4249877,11.9207931 L37.4902476,11.7667272 C37.5172517,11.7041241 37.5771108,11.5673739 37.5843119,11.5509462 C37.6009644,11.5109867 37.6068153,11.491895 37.6104159,11.4692513 C37.6126662,11.4577074 37.6284186,11.200191 37.6486717,11.0221494 L37.5955636,10.5017885 C37.2463105,9.26038147 36.2966662,8.65344176 35.064829,8.45808443 C34.1642421,8.49404794 33.3865239,8.88875854 32.9247538,9.56451731 C32.8234884,9.80294205 32.8234884,9.80294205 32.7217729,10.0409228 C32.6200575,10.2789035 32.6200575,10.2789035 32.5268933,10.4858047 C32.5264432,10.4866927 32.5264432,10.4866927 32.5264432,10.4875807 L32.5264432,10.4893567 L32.471985,10.9999497 C32.492238,11.200191 32.5084405,11.4577074 32.5102408,11.4692513 C32.5138413,11.491895 32.5196922,11.5109867 32.5367948,11.5509462 C32.5435458,11.5673739 32.6034049,11.7041241 32.630409,11.7671712 L32.696119,11.9207931 L22.2891874,11.9207931 L22.2891874,11.9212371 L20.5924295,11.9212371 L20.6581395,11.7671712 C20.6846936,11.7041241 20.7445527,11.5673739 20.7517538,11.5509462 C20.7684063,11.5109867 20.7742572,11.491895 20.7778577,11.4692513 C20.779658,11.4577074 20.7958605,11.200191 20.8161135,11.0221494 L20.7657059,10.5088924 C20.3984501,9.26304543 19.5487209,8.58995063 18.2322709,8.45808443 C17.331684,8.49404794 16.5539658,8.88875854 16.0921956,9.56451731 C15.9909302,9.80294205 15.9909302,9.80294205 15.8892148,10.0409228 C15.8554596,10.1203977 15.8554596,10.1203977 15.8212544,10.1998726 C15.7537442,10.3583785 15.7537442,10.3583785 15.6943352,10.4853607 C15.6938851,10.4862487 15.6938851,10.4862487 15.6938851,10.4875807 L15.6938851,10.4893567 L15.6394268,10.9999497 C15.6596799,11.200191 15.6758824,11.4577074 15.6776826,11.4692513 C15.6812832,11.491895 15.6871341,11.5109867 15.7042367,11.5509462 C15.7109877,11.5673739 15.7708468,11.7041241 15.7978509,11.7671712 L15.8635609,11.9212371 L15.6938851,11.9212371 L5.18658824,11.9212371 L5.18658824,11.9212371 L3.4893803,11.9212371 L3.55509029,11.7671712 C3.58209439,11.7041241 3.64195349,11.5673739 3.64915458,11.5509462 C3.66580711,11.5109867 3.671658,11.491895 3.67525855,11.4692513 C3.67705882,11.4577074 3.69326129,11.200191 3.71351436,11.0221494 L3.66400684,10.5124444 C3.27064706,9.32120863 3.00915732,9.07789996 1.66255267,8.5189116 L1.65940219,8.51757962 C1.56983858,8.48117211 1.60809439,8.48827602 1.54868536,8.48161611 C1.40691382,8.4825041 1.33580301,8.47984013 1.13642271,8.45764043 C0.927140903,8.47850815 0.668801642,8.49315995 0.668801642,8.49271596 C0.633246238,8.49759989 0.766466484,8.44476461 0.400560876,8.59661054 L0.24753762,8.66010167 L0.244387141,8.49626791 L0.219633379,7.11411479 L0.183627907,5.13700981 L0.158424077,3.72644108 L0.155273598,3.55594741 L0.314597811,3.62210251 C0.393359781,3.65495806 0.553134063,3.72333312 0.557634747,3.7251091 C0.604891929,3.74508883 0.62694528,3.75219273 0.651248974,3.75663267 C0.67195212,3.76018462 0.942443228,3.77750038 1.11391929,3.79659212 L1.60629412,3.74819678 C2.78997401,3.56482729 3.48307934,2.63909994 3.71351436,1.25428286 L3.6874104,0.995878392 L3.67795896,0.906191618 L3.76482216,0.879107988 L5.06687004,0.468857594 L5.18658824,0.431562103 L5.211342,0.552328453 C5.22484405,0.618039555 5.2540985,0.754789687 5.25364843,0.753013711 C5.264,0.801853043 5.26850068,0.828492679 5.27165116,0.860016249 C5.27435157,0.887543873 5.2811026,1.10243694 5.28830369,1.24451499 C5.21854309,3.38234578 3.75087004,4.72897938 1.76201778,5.27997585 L1.79262244,6.97647667 C3.64780438,7.29126837 4.66360876,8.70716503 5.21089193,10.3672583 L14.1379986,10.3672583 C14.627223,8.14773267 16.1020971,7.29171237 18.2313707,6.90410566 C20.3939494,6.99290445 21.6532408,8.47184824 22.3121409,10.3668143 L30.9683064,10.3668143 L31.1312312,9.70792735 C31.8220862,8.03362623 33.1074815,7.15096629 35.0616785,6.90410566 C37.2202066,6.97381271 38.5902148,8.41013308 39.1491997,10.3668143 L40.506156,10.3668143 L40.6186731,10.3668143 L40.6186731,11.9207931 Z M40.3936389,11.6987961 L40.3936389,10.5888113 L39.2000575,10.5888113 L39.2027579,10.6025751 L39.2027579,10.6025751 L38.979974,10.6247748 L38.9723228,10.5892553 L38.9543201,10.5000125 C38.5402572,8.49848788 37.0424295,7.15096629 35.0747305,7.12521464 C33.2127975,7.36141941 31.9980629,8.19524002 31.3450137,9.77630242 L31.1658865,10.5040085 L31.1447332,10.5888113 L22.3674993,10.5888113 L22.3701997,10.6025751 L22.3701997,10.6025751 L22.1474159,10.6247748 L22.1384145,10.5808194 L22.1339138,10.5590637 L22.1339138,10.5590637 L22.1339138,10.5590637 L22.1375144,10.5581757 L22.1235622,10.5080044 C21.5375732,8.44210065 20.1869179,7.18737379 18.2421724,7.12521464 C16.0440383,7.40404283 14.7352394,8.48428007 14.3342285,10.5004565 C14.3265773,10.5595077 14.3040739,10.6172269 14.3013735,10.6776101 C14.3031737,10.6425346 14.2977729,10.8552077 14.2896717,11.0061656 L14.3013735,11.2765579 L14.3018235,11.2854378 L14.3018235,11.2858818 L14.0772394,11.2952057 L14.0646375,11.0052776 C14.0727387,10.8476598 14.0781395,10.6354307 14.0767893,10.6669542 C14.0785896,10.6243308 14.0763393,10.6505265 14.0866908,10.5892553 L5.26490014,10.5892553 L5.26760055,10.6025751 L5.26760055,10.6025751 L5.04481669,10.6247748 L5.03131464,10.5595077 L5.03491518,10.5586197 L5.020513,10.5071164 C4.50878523,8.63346203 3.38631464,7.4431143 1.65895212,7.17316599 C1.66795349,7.17494196 1.53293297,7.14697034 1.52078112,7.14563836 C1.51087962,7.14430638 1.41366484,7.13897845 1.36055677,7.1354265 L1.3758591,6.91387353 C1.42086594,6.91698149 1.52933242,6.92275341 1.54823529,6.92497338 L1.5666881,6.92808133 L1.53518331,5.19872496 L1.53383311,5.10637423 L1.62519699,5.08817048 C3.66805746,4.67703209 5.03851573,3.20474821 5.06326949,1.24895493 C5.0560684,1.10732087 5.04931737,0.900419697 5.0475171,0.88043997 C5.04526676,0.859128261 5.04211628,0.839148534 5.03356498,0.797857098 C5.01736252,0.721490142 5.02276334,0.748129778 5.01646238,0.71793819 L3.91919562,1.06336547 L3.93674829,1.26094277 C3.69101094,2.7594223 2.93714637,3.76684453 1.6350985,3.96797378 L1.11391929,4.0177011 C0.931191518,3.99949735 0.647198358,3.9812936 0.611642955,3.97507768 C0.567536252,3.96708579 0.531080711,3.95509796 0.469871409,3.9297903 C0.422164159,3.90936658 0.450068399,3.92135442 0.386158687,3.89382679 L0.408662107,5.13301386 L0.444667579,7.11011885 L0.46672093,8.32755021 C0.48922435,8.31778235 0.473922025,8.32444225 0.512627907,8.30845847 C0.563035568,8.28803475 0.596790698,8.27871088 0.638647059,8.27293896 C0.648998632,8.27160698 0.912738714,8.25651118 1.13642271,8.23653146 C1.34975513,8.25784316 1.41321477,8.26006313 1.54733516,8.25961914 C1.61484542,8.25917515 1.62609713,8.2627271 1.74986594,8.31423039 L1.74986594,8.31423039 C2.96595075,8.74490451 3.46597674,9.29146104 3.88319015,10.467157 L3.93764843,11.0221494 C3.91784542,11.2130668 3.90164295,11.4799071 3.89759234,11.5043268 C3.89084131,11.5465062 3.88003967,11.5811378 3.85708618,11.635749 C3.83818331,11.6788164 3.84718468,11.6579487 3.82963201,11.6992401 L4.96155404,11.6992401 L4.96155404,11.6992401 L4.98225718,11.6992401 L5.02456361,11.4941149 L5.24644733,11.5300785 C5.2383461,11.5957896 5.23789603,11.5988975 5.23114501,11.6264251 L5.21359234,11.6992401 L14.140249,11.6992401 L14.1109945,11.562934 L14.331078,11.5172026 L14.3702339,11.6992401 L15.5237592,11.6992401 C15.5057565,11.6579487 15.5147579,11.6788164 15.4963051,11.635749 C15.4729015,11.5811378 15.4620999,11.5465062 15.4553488,11.5038828 C15.4512982,11.4799071 15.4350958,11.2130668 15.4152927,10.9999497 L15.469751,10.466713 C15.4702011,10.465825 15.4702011,10.465825 15.4702011,10.464937 C15.4702011,10.464049 15.4702011,10.464049 15.4787524,10.4311935 C15.5462627,10.2722436 15.5462627,10.2722436 15.614223,10.1137378 C15.6479781,10.0342629 15.6479781,10.0342629 15.6817332,9.95478798 C15.7834487,9.71680723 15.7834487,9.71680723 15.8950657,9.45973474 C16.4085937,8.70361307 17.2538222,8.27471493 18.2390219,8.23653146 C19.661238,8.37816552 20.5883789,9.11297548 20.9857893,10.467157 L21.0402476,11.0221494 C21.0204446,11.2135108 21.0042421,11.4799071 21.0001915,11.5038828 C20.9934405,11.5465062 20.9826389,11.5811378 20.9596854,11.635749 C20.9407825,11.6788164 20.9502339,11.6579487 20.9322312,11.6992401 L22.0641532,11.6992401 L22.0641532,11.6987961 L22.0848564,11.6987961 L22.1271628,11.4941149 L22.3490465,11.5300785 C22.3409453,11.5957896 22.3404952,11.5988975 22.3337442,11.6264251 L22.3161915,11.6987961 L32.3558673,11.6987961 C32.3383146,11.6579487 32.347316,11.6788164 32.3288632,11.635749 C32.3054596,11.5811378 32.294658,11.5465062 32.287907,11.5038828 C32.2838564,11.4799071 32.2676539,11.2130668 32.2478509,10.9999497 L32.3023092,10.466713 C32.3027592,10.465825 32.3027592,10.465825 32.3027592,10.464493 C32.3027592,10.463605 32.3027592,10.463605 32.3113105,10.4311935 C32.4125759,10.1932127 32.4125759,10.1932127 32.5142914,9.95478798 C32.6160068,9.71680723 32.6160068,9.71680723 32.7276238,9.45973474 C33.2411518,8.70361307 34.0863803,8.27471493 35.07158,8.23653146 C36.420435,8.35685381 37.3354241,9.13561917 37.7850424,10.3668143 L37.8079959,10.3668143 L37.8183475,10.466713 L37.8728057,11.0221494 C37.8530027,11.2130668 37.8368003,11.4799071 37.8327497,11.5038828 C37.8259986,11.5465062 37.815197,11.5811378 37.7922435,11.635749 C37.7733406,11.6788164 37.7827921,11.6579487 37.7647893,11.6987961 L38.9174145,11.6987961 L38.9597209,11.4941149 L39.1816047,11.5300785 C39.1735034,11.5957896 39.1730534,11.5988975 39.1663023,11.6264251 L39.1491997,11.6987961 L40.3936389,11.6987961 Z M5.28785363,11.0217054 C5.28335294,11.1300399 5.2824528,11.1495757 5.2811026,11.2308265 C5.28065253,11.2592422 5.28065253,11.2623501 5.27210123,11.3302812 L5.04796717,11.3107454 L5.06326949,11.0128255 L5.06326949,11.0123815 L5.06326949,11.0114935 L5.28785363,11.0217054 Z M22.3904528,11.0221494 C22.3859521,11.1300399 22.385052,11.1500196 22.3837018,11.2308265 C22.3832517,11.2592422 22.3832517,11.2623501 22.3747004,11.3302812 L22.1505663,11.3107454 L22.1658687,11.0128255 L22.1658687,11.0123815 L22.1658687,11.0114935 L22.3904528,11.0221494 Z M39.2230109,11.0217054 C39.2185103,11.1300399 39.2176101,11.1495757 39.2162599,11.2308265 C39.2158098,11.2592422 39.2158098,11.2623501 39.2072585,11.3302812 L38.9831245,11.3107454 L38.9984268,11.0128255 L38.9984268,11.0123815 L38.9984268,11.0114935 L39.2230109,11.0217054 Z" id="Shape"></path>
                                    </g>
                                    <g id="Group" transform="translate(35.555404, 35.963509)">
                                        <path d="M8.40457729,0.26639636 C8.05667442,2.18001021 6.34821477,3.36902597 4.45567715,3.46315268 C2.53253488,3.43074112 0.892035568,2.13028289 0.506777018,0.26639636 L1.92224213,0.26639636 C2.28544733,1.45363614 3.26029549,2.01218051 4.45567715,2.13117088 C5.36841587,2.10186728 6.1569357,1.69738881 6.69476744,0.956806926 C6.84238988,0.753901699 6.89144733,0.496385217 6.98956224,0.26639636 L8.40457729,0.26639636 Z" id="Shape"></path>
                                        <path d="M8.53914774,0.155397877 L8.51574419,0.285932093 C8.172342,2.17423829 6.49718741,3.47292055 4.45387688,3.57415116 C2.46592476,3.54085162 0.790320109,2.19244204 0.39651026,0.288152063 L0.369056088,0.155397877 L2.00550479,0.155397877 L2.02980848,0.233984803 C2.35700821,1.30223421 3.21663885,1.89629809 4.45207661,2.0201724 C5.33691108,1.99175678 6.08987551,1.59926615 6.60340356,0.891983812 C6.67676471,0.791197189 6.71727086,0.695738493 6.79558276,0.467081618 C6.83743912,0.344539292 6.85724213,0.290372032 6.88559644,0.223328948 L6.91485089,0.155397877 L8.53914774,0.155397877 Z M8.25785499,0.377394843 L7.06652394,0.377394843 C7.0386197,0.447101891 7.05932285,0.393822619 7.00891518,0.537676653 C6.92340219,0.787645238 6.87704514,0.896423751 6.7865814,1.02118605 C6.23209713,1.78485561 5.41342271,2.21153378 4.44442544,2.24172537 C3.2301409,2.1298389 2.28544733,1.50691541 1.84528044,0.377394843 L0.657099863,0.377394843 C1.10401778,2.20798183 2.64640219,3.17189266 4.44982627,3.3521542 C6.30140766,3.22694791 7.76232969,2.15248259 8.25785499,0.377394843 Z" id="Shape"></path>
                                    </g>
                                    <g id="Group" transform="translate(18.902873, 35.963509)">
                                        <path d="M8.22454993,0.26639636 C7.87664706,2.18001021 6.16818741,3.36902597 4.27564979,3.46315268 C2.35250752,3.43074112 0.712008208,2.13028289 0.326749658,0.26639636 L1.74176471,0.26639636 C2.10541997,1.45363614 3.08026813,2.01218051 4.27564979,2.13117088 C5.18838851,2.10186728 5.97690834,1.69738881 6.51474008,0.956806926 C6.66236252,0.753901699 6.71141997,0.496385217 6.80953488,0.26639636 L8.22454993,0.26639636 Z" id="Shape"></path>
                                        <path d="M8.35912038,0.155397877 L8.33526676,0.285932093 C7.99231464,2.17423829 6.31716005,3.47292055 4.27384952,3.57415116 C2.2858974,3.54085162 0.609842681,2.19244204 0.2164829,0.288596057 L0.189028728,0.155397877 L1.82547743,0.155397877 L1.84978112,0.233984803 C2.17698085,1.30223421 3.03661149,1.89629809 4.27204925,2.0201724 C5.15688372,1.99175678 5.90984815,1.59926615 6.4233762,0.891983812 C6.49673735,0.791197189 6.5372435,0.695738493 6.6155554,0.467081618 C6.65741176,0.344983286 6.67721477,0.290372032 6.70556908,0.223328948 L6.73482353,0.155397877 L8.35912038,0.155397877 Z M8.07737756,0.377394843 L6.88649658,0.377394843 C6.85859234,0.447101891 6.87929549,0.393822619 6.82888782,0.537676653 C6.74337483,0.787645238 6.69701778,0.896423751 6.60655404,1.02118605 C6.05206977,1.78485561 5.23339535,2.21153378 4.26439808,2.24172537 C3.05011354,2.1298389 2.10541997,1.50647142 1.66480301,0.377394843 L0.477072503,0.377394843 C0.923990424,2.20798183 2.46637483,3.17189266 4.27024897,3.3521542 C6.1213803,3.22694791 7.58230233,2.15292658 8.07737756,0.377394843 Z" id="Shape"></path>
                                    </g>
                                    <path d="M2.7004104,4.58423736 C2.7004104,2.71457891 4.23694391,1.19878362 6.13218194,1.19878362 C8.02741997,1.19878362 9.56395349,2.71457891 9.56395349,4.58423736 C9.56395349,6.45389581 8.02741997,7.9696911 6.13218194,7.9696911 C4.23694391,7.9696911 2.7004104,6.45389581 2.7004104,4.58423736 Z" id="Shape"></path>
                                    <path d="M19.5217168,4.58423736 C19.5217168,2.71457891 21.0582503,1.19878362 22.9534884,1.19878362 C24.8487264,1.19878362 26.3852599,2.71457891 26.3852599,4.58423736 C26.3852599,6.45389581 24.8487264,7.9696911 22.9534884,7.9696911 C21.0582503,7.9696911 19.5217168,6.45389581 19.5217168,4.58423736 Z" id="Shape"></path>
                                    <path d="M36.6805746,4.58423736 C36.6805746,2.71457891 38.2171081,1.19878362 40.1123461,1.19878362 C42.0075841,1.19878362 43.5441176,2.71457891 43.5441176,4.58423736 C43.5441176,6.45389581 42.0075841,7.9696911 40.1123461,7.9696911 C38.2171081,7.9696911 36.6805746,6.45389581 36.6805746,4.58423736 Z" id="Shape"></path>
                                    <path d="M36.6805746,15.0402945 C36.6805746,13.170636 38.2171081,11.6548407 40.1123461,11.6548407 C42.0075841,11.6548407 43.5441176,13.170636 43.5441176,15.0402945 C43.5441176,16.9099529 42.0075841,18.4257482 40.1123461,18.4257482 C38.2171081,18.4257482 36.6805746,16.9099529 36.6805746,15.0402945 Z" id="Shape"></path>
                                    <path d="M19.5217168,19.979727 C19.5217168,18.1100685 21.0582503,16.5942733 22.9534884,16.5942733 C24.8487264,16.5942733 26.3852599,18.1100685 26.3852599,19.979727 C26.3852599,21.8493854 24.8487264,23.3651807 22.9534884,23.3651807 C21.0582503,23.3651807 19.5217168,21.8493854 19.5217168,19.979727 Z" id="Shape"></path>
                                    <path d="M2.7004104,25.5851504 C2.7004104,23.715492 4.23694391,22.1996967 6.13218194,22.1996967 C8.02741997,22.1996967 9.56395349,23.715492 9.56395349,25.5851504 C9.56395349,27.4548089 8.02741997,28.9706041 6.13218194,28.9706041 C4.23694391,28.9706041 2.7004104,27.4548089 2.7004104,25.5851504 Z" id="Shape"></path>
                                    <path d="M2.7004104,35.5750139 C2.7004104,33.7053554 4.23694391,32.1895602 6.13218194,32.1895602 C8.02741997,32.1895602 9.56395349,33.7053554 9.56395349,35.5750139 C9.56395349,37.4446724 8.02741997,38.9604676 6.13218194,38.9604676 C4.23694391,38.9604676 2.7004104,37.4446724 2.7004104,35.5750139 Z" id="Shape"></path>
                                </g>
                            </g>
                        </g>
                    </g>
                </g>
            </g>
        </g>
    </g>
</svg>
