<?xml version="1.0" encoding="UTF-8"?>
<svg width="42px" height="32px" viewBox="0 0 42 32" version="1.1" xmlns="http://www.w3.org/2000/svg" xmlns:xlink="http://www.w3.org/1999/xlink">
    <!-- Generator: Sketch 41.2 (35397) - http://www.bohemiancoding.com/sketch -->
    <title>Page 1</title>
    <desc>Created with Sketch.</desc>
    <defs></defs>
    <g id="Page-1" stroke="none" stroke-width="1" fill="none" fill-rule="evenodd">
        <g id="Option-E-Mobile" transform="translate(-25.000000, -651.000000)" fill="#F40026">
            <path d="M50.2,651 L67,651 L67,655.211095 L50.2,655.211095 L50.2,651 Z M50.2,662.580512 L67,662.580512 L67,666.791607 L50.2,666.791607 L50.2,662.580512 Z M50.2,674.161023 L67,674.161023 L67,678.372118 L50.2,678.372118 L50.2,674.161023 Z M25,664.686059 C25,672.234447 31.1215,678.372118 38.65,678.372118 L39.7,678.372118 L39.7,682.583213 L46,676.266571 L39.7,669.949928 L39.7,674.161023 L38.65,674.161023 C33.442,674.161023 29.2,669.907817 29.2,664.686059 C29.2,659.464301 33.442,655.211095 38.65,655.211095 L46,655.211095 L46,651 L38.65,651 C31.1215,651 25,657.137671 25,664.686059 Z" id="Page-1"></path>
        </g>
    </g>
</svg>
