<?xml version="1.0" encoding="utf-8"?>
<!DOCTYPE svg PUBLIC "-//W3C//DTD SVG 1.1//EN" "https://www.w3.org/Graphics/SVG/1.1/DTD/svg11.dtd">
<svg style="position: absolute; width: 0; height: 0; overflow: hidden" version="1.1" xmlns="http://www.w3.org/2000/svg" xmlns:xlink="http://www.w3.org/1999/xlink">
	<symbol id="inferno-logo" viewBox="0 0 32 32">
		<title>inferno-logo</title>
		<path class="path1" fill="#494949" d="M19.545 4.396c5.203 1.53 9.002 6.339 9.002 12.038 0 6.93-5.618 12.547-12.547 12.547s-12.547-5.617-12.547-12.547c0-4.653 2.533-8.714 6.295-10.88 1.227-3.269 3.434-4.344 3.434-4.344-7.351 1.029-12.756 8.012-12.756 15.216 0 8.601 6.973 15.574 15.574 15.574s15.574-6.973 15.574-15.574c0-7.42-5.189-13.627-12.136-15.192-0.567 0.98-0.528 2.274 0.107 3.162z"></path>

		<path class="path2" fill="#ff3232" d="M20.89 15.573c0 0 3.636-1.536 0.925-6.869 2.339 1.764 3.851 4.566 3.851 7.722 0 5.338-4.327 9.666-9.666 9.666s-9.666-4.327-9.666-9.666c0-2.911 1.287-5.522 3.323-7.294-1.708 2.236-2.016 6.723 1.181 6.723 1.964 0 2.099-2.003 2.099-2.446 0-1.993-1.191-2.4-1.191-5.296 0-2.034 1.436-5.648 6.151-8.113 0 0-1.221 1.46-1.221 3.422 0 4.164 4.715 5.792 4.213 12.151z"></path>
	</symbol>
</svg>
