<?xml version="1.0" encoding="UTF-8"?>
<svg width="43px" height="34px" viewBox="0 0 43 34" version="1.1" xmlns="http://www.w3.org/2000/svg" xmlns:xlink="http://www.w3.org/1999/xlink">
    <!-- Generator: Sketch 41.2 (35397) - http://www.bohemiancoding.com/sketch -->
    <title>noun_153101_cc</title>
    <desc>Created with Sketch.</desc>
    <defs></defs>
    <g id="Page-1" stroke="none" stroke-width="1" fill="none" fill-rule="evenodd">
        <g id="Option-E-Mobile" transform="translate(-22.000000, -1147.000000)" fill="#F40026">
            <g id="noun_153101_cc" transform="translate(22.000000, 1147.000000)">
                <g id="Group">
                    <g>
                        <ellipse id="Oval" cx="9.254" cy="17.1785" rx="9.254" ry="9.36416667"></ellipse>
                        <path d="M32.746,7.81433333 C27.6434667,7.81433333 23.492,12.0152222 23.492,17.1785 C23.492,22.3417778 27.643,26.5426667 32.746,26.5426667 C37.8485333,26.5426667 42,22.3417778 42,17.1785 C42,12.0152222 37.8485333,7.81433333 32.746,7.81433333 Z M32.746,24.7425556 C28.6248667,24.7425556 25.2709333,21.3496389 25.2709333,17.1789722 C25.2709333,13.0083056 28.6248667,9.61538889 32.746,9.61538889 C36.8671333,9.61538889 40.2210667,13.0087778 40.2210667,17.1789722 C40.2210667,21.3491667 36.8671333,24.7425556 32.746,24.7425556 Z" id="Shape" stroke="#F40026"></path>
                        <path d="M10.0389333,5.26811111 C10.1822,5.26811111 10.325,5.21002778 10.4309333,5.09480556 C10.4636,5.05891667 13.7825333,1.51111111 19.6574,1.51111111 C19.7138667,1.51111111 19.7717333,1.51158333 19.8291333,1.51205556 C24.5597333,1.56730556 27.4684667,3.44108333 28.4923333,4.23488889 L25.8883333,4.284 C25.5934,4.28919444 25.3591333,4.53522222 25.3652,4.83413889 C25.3708,5.12833333 25.6083333,5.36444444 25.8990667,5.36444444 L25.9088667,5.36444444 L30.4061333,5.27944444 L29.974,1.0285 C29.9427333,0.731472222 29.6744,0.51425 29.3878667,0.546361111 C29.0943333,0.576583333 28.8810667,0.842444444 28.9114,1.139 L29.1382,3.36930556 C27.9804,2.46122222 24.8957333,0.491111111 19.8412667,0.431611111 C13.3830667,0.36975 9.79766667,4.19758333 9.6474,4.35955556 C9.4472,4.57913889 9.4598,4.92055556 9.67586667,5.12313889 C9.77853333,5.22088889 9.90826667,5.26811111 10.0389333,5.26811111 Z" id="Shape"></path>
                        <path d="M31.6353333,28.8688333 C31.5947333,28.9056667 27.5039333,32.5729444 21.4895333,32.487 C16.7608,32.43175 13.8525333,30.5593889 12.8272667,29.7651111 L15.428,29.7155278 C15.7234,29.7098611 15.9576667,29.4638333 15.9520667,29.1658611 C15.946,28.8669444 15.7042667,28.6346111 15.4079333,28.6355556 L10.9106667,28.7205556 L11.3437333,32.9715 C11.3722,33.2496389 11.6041333,33.4564722 11.8743333,33.4564722 C11.8925333,33.4564722 11.9107333,33.4555278 11.9298667,33.4531667 C12.2234,33.4224722 12.4366667,33.1570833 12.4063333,32.8605278 L12.1790667,30.6288056 C13.3364,31.5364167 16.422,33.5079444 21.4769333,33.5674444 C21.5399333,33.5683889 21.6015333,33.5688611 21.6636,33.5688611 C27.9799333,33.5688611 32.1710667,29.8345278 32.3479333,29.6735 C32.5682,29.47375 32.5864,29.1323333 32.3899333,28.9113333 C32.1916,28.6884444 31.8556,28.6690833 31.6353333,28.8688333 Z" id="Shape"></path>
                    </g>
                </g>
            </g>
        </g>
    </g>
</svg>
