<?xml version="1.0" encoding="UTF-8"?>
<svg width="49px" height="50px" viewBox="0 0 49 50" version="1.1" xmlns="http://www.w3.org/2000/svg" xmlns:xlink="http://www.w3.org/1999/xlink">
    <!-- Generator: Sketch 41.2 (35397) - http://www.bohemiancoding.com/sketch -->
    <title>Page 1</title>
    <desc>Created with Sketch.</desc>
    <defs></defs>
    <g id="Page-1" stroke="none" stroke-width="1" fill="none" fill-rule="evenodd">
        <g id="Option-E-Mobile" transform="translate(-20.000000, -1313.000000)" fill="#F40026">
            <path d="M29.4342105,1340.37344 C28.0302632,1340.37344 26.8815789,1341.52515 26.8815789,1342.93281 C26.8815789,1344.34047 28.0302632,1345.49219 29.4342105,1345.49219 C30.8381579,1345.49219 31.9868421,1344.34047 31.9868421,1342.93281 C31.9868421,1341.52515 30.8381579,1340.37344 29.4342105,1340.37344 Z M29.4342105,1350.61094 C28.0302632,1350.61094 26.8815789,1351.76265 26.8815789,1353.17031 C26.8815789,1354.57797 28.0302632,1355.72968 29.4342105,1355.72968 C30.8381579,1355.72968 31.9868421,1354.57797 31.9868421,1353.17031 C31.9868421,1351.76265 30.8381579,1350.61094 29.4342105,1350.61094 Z M29.4342105,1330.13594 C28.0302632,1330.13594 26.8815789,1331.28766 26.8815789,1332.69531 C26.8815789,1334.10297 28.0302632,1335.25469 29.4342105,1335.25469 C30.8381579,1335.25469 31.9868421,1334.10297 31.9868421,1332.69531 C31.9868421,1331.28766 30.8381579,1330.13594 29.4342105,1330.13594 Z M21.7763158,1331.41562 C21.0743421,1331.41562 20.5,1331.99148 20.5,1332.69531 C20.5,1333.39914 21.0743421,1333.975 21.7763158,1333.975 C22.4782895,1333.975 23.0526316,1333.39914 23.0526316,1332.69531 C23.0526316,1331.99148 22.4782895,1331.41562 21.7763158,1331.41562 Z M29.4342105,1319.89844 C28.0302632,1319.89844 26.8815789,1321.05016 26.8815789,1322.45781 C26.8815789,1323.86547 28.0302632,1325.01719 29.4342105,1325.01719 C30.8381579,1325.01719 31.9868421,1323.86547 31.9868421,1322.45781 C31.9868421,1321.05016 30.8381579,1319.89844 29.4342105,1319.89844 Z M67.7236842,1333.975 C68.4256579,1333.975 69,1333.39914 69,1332.69531 C69,1331.99148 68.4256579,1331.41562 67.7236842,1331.41562 C67.0217105,1331.41562 66.4473684,1331.99148 66.4473684,1332.69531 C66.4473684,1333.39914 67.0217105,1333.975 67.7236842,1333.975 Z M49.8552632,1325.01719 C51.2592105,1325.01719 52.4078947,1323.86547 52.4078947,1322.45781 C52.4078947,1321.05016 51.2592105,1319.89844 49.8552632,1319.89844 C48.4513158,1319.89844 47.3026316,1321.05016 47.3026316,1322.45781 C47.3026316,1323.86547 48.4513158,1325.01719 49.8552632,1325.01719 Z M49.8552632,1316.05937 C50.5572368,1316.05937 51.1315789,1315.48352 51.1315789,1314.77969 C51.1315789,1314.07586 50.5572368,1313.5 49.8552632,1313.5 C49.1532895,1313.5 48.5789474,1314.07586 48.5789474,1314.77969 C48.5789474,1315.48352 49.1532895,1316.05937 49.8552632,1316.05937 Z M21.7763158,1341.65312 C21.0743421,1341.65312 20.5,1342.22898 20.5,1342.93281 C20.5,1343.63664 21.0743421,1344.2125 21.7763158,1344.2125 C22.4782895,1344.2125 23.0526316,1343.63664 23.0526316,1342.93281 C23.0526316,1342.22898 22.4782895,1341.65312 21.7763158,1341.65312 Z M39.6447368,1359.56875 C38.9427632,1359.56875 38.3684211,1360.14461 38.3684211,1360.84843 C38.3684211,1361.55226 38.9427632,1362.12812 39.6447368,1362.12812 C40.3467105,1362.12812 40.9210526,1361.55226 40.9210526,1360.84843 C40.9210526,1360.14461 40.3467105,1359.56875 39.6447368,1359.56875 Z M39.6447368,1316.05937 C40.3467105,1316.05937 40.9210526,1315.48352 40.9210526,1314.77969 C40.9210526,1314.07586 40.3467105,1313.5 39.6447368,1313.5 C38.9427632,1313.5 38.3684211,1314.07586 38.3684211,1314.77969 C38.3684211,1315.48352 38.9427632,1316.05937 39.6447368,1316.05937 Z M39.6447368,1325.01719 C41.0486842,1325.01719 42.1973684,1323.86547 42.1973684,1322.45781 C42.1973684,1321.05016 41.0486842,1319.89844 39.6447368,1319.89844 C38.2407895,1319.89844 37.0921053,1321.05016 37.0921053,1322.45781 C37.0921053,1323.86547 38.2407895,1325.01719 39.6447368,1325.01719 Z M39.6447368,1339.09375 C37.5260526,1339.09375 35.8157895,1340.80853 35.8157895,1342.93281 C35.8157895,1345.05709 37.5260526,1346.77187 39.6447368,1346.77187 C41.7634211,1346.77187 43.4736842,1345.05709 43.4736842,1342.93281 C43.4736842,1340.80853 41.7634211,1339.09375 39.6447368,1339.09375 Z M60.0657895,1340.37344 C58.6618421,1340.37344 57.5131579,1341.52515 57.5131579,1342.93281 C57.5131579,1344.34047 58.6618421,1345.49219 60.0657895,1345.49219 C61.4697368,1345.49219 62.6184211,1344.34047 62.6184211,1342.93281 C62.6184211,1341.52515 61.4697368,1340.37344 60.0657895,1340.37344 Z M60.0657895,1350.61094 C58.6618421,1350.61094 57.5131579,1351.76265 57.5131579,1353.17031 C57.5131579,1354.57797 58.6618421,1355.72968 60.0657895,1355.72968 C61.4697368,1355.72968 62.6184211,1354.57797 62.6184211,1353.17031 C62.6184211,1351.76265 61.4697368,1350.61094 60.0657895,1350.61094 Z M60.0657895,1330.13594 C58.6618421,1330.13594 57.5131579,1331.28766 57.5131579,1332.69531 C57.5131579,1334.10297 58.6618421,1335.25469 60.0657895,1335.25469 C61.4697368,1335.25469 62.6184211,1334.10297 62.6184211,1332.69531 C62.6184211,1331.28766 61.4697368,1330.13594 60.0657895,1330.13594 Z M60.0657895,1319.89844 C58.6618421,1319.89844 57.5131579,1321.05016 57.5131579,1322.45781 C57.5131579,1323.86547 58.6618421,1325.01719 60.0657895,1325.01719 C61.4697368,1325.01719 62.6184211,1323.86547 62.6184211,1322.45781 C62.6184211,1321.05016 61.4697368,1319.89844 60.0657895,1319.89844 Z M67.7236842,1341.65312 C67.0217105,1341.65312 66.4473684,1342.22898 66.4473684,1342.93281 C66.4473684,1343.63664 67.0217105,1344.2125 67.7236842,1344.2125 C68.4256579,1344.2125 69,1343.63664 69,1342.93281 C69,1342.22898 68.4256579,1341.65312 67.7236842,1341.65312 Z M49.8552632,1350.61094 C48.4513158,1350.61094 47.3026316,1351.76265 47.3026316,1353.17031 C47.3026316,1354.57797 48.4513158,1355.72968 49.8552632,1355.72968 C51.2592105,1355.72968 52.4078947,1354.57797 52.4078947,1353.17031 C52.4078947,1351.76265 51.2592105,1350.61094 49.8552632,1350.61094 Z M49.8552632,1359.56875 C49.1532895,1359.56875 48.5789474,1360.14461 48.5789474,1360.84843 C48.5789474,1361.55226 49.1532895,1362.12812 49.8552632,1362.12812 C50.5572368,1362.12812 51.1315789,1361.55226 51.1315789,1360.84843 C51.1315789,1360.14461 50.5572368,1359.56875 49.8552632,1359.56875 Z M39.6447368,1328.85625 C37.5260526,1328.85625 35.8157895,1330.57103 35.8157895,1332.69531 C35.8157895,1334.81959 37.5260526,1336.53437 39.6447368,1336.53437 C41.7634211,1336.53437 43.4736842,1334.81959 43.4736842,1332.69531 C43.4736842,1330.57103 41.7634211,1328.85625 39.6447368,1328.85625 Z M39.6447368,1350.61094 C38.2407895,1350.61094 37.0921053,1351.76265 37.0921053,1353.17031 C37.0921053,1354.57797 38.2407895,1355.72968 39.6447368,1355.72968 C41.0486842,1355.72968 42.1973684,1354.57797 42.1973684,1353.17031 C42.1973684,1351.76265 41.0486842,1350.61094 39.6447368,1350.61094 Z M49.8552632,1339.09375 C47.7365789,1339.09375 46.0263158,1340.80853 46.0263158,1342.93281 C46.0263158,1345.05709 47.7365789,1346.77187 49.8552632,1346.77187 C51.9739474,1346.77187 53.6842105,1345.05709 53.6842105,1342.93281 C53.6842105,1340.80853 51.9739474,1339.09375 49.8552632,1339.09375 Z M49.8552632,1328.85625 C47.7365789,1328.85625 46.0263158,1330.57103 46.0263158,1332.69531 C46.0263158,1334.81959 47.7365789,1336.53437 49.8552632,1336.53437 C51.9739474,1336.53437 53.6842105,1334.81959 53.6842105,1332.69531 C53.6842105,1330.57103 51.9739474,1328.85625 49.8552632,1328.85625 Z" id="Page-1"></path>
        </g>
    </g>
</svg>
