<?xml version="1.0" encoding="UTF-8"?>
<svg width="38px" height="38px" viewBox="0 0 38 38" version="1.1" xmlns="http://www.w3.org/2000/svg" xmlns:xlink="http://www.w3.org/1999/xlink">
    <!-- Generator: Sketch 41.2 (35397) - http://www.bohemiancoding.com/sketch -->
    <title>Combined Shape</title>
    <desc>Created with Sketch.</desc>
    <defs></defs>
    <g id="Page-1" stroke="none" stroke-width="1" fill="none" fill-rule="evenodd">
        <g id="Option-E-Mobile" transform="translate(-27.000000, -465.000000)" fill="#F40026">
            <path d="M39.7481415,465 L27,474.212121 L33.0869505,478.587879 L45.7202439,469.375758 L39.7481415,465 Z M51.6923462,465 L64.4404878,474.212121 L58.3535373,478.587879 L45.7202439,469.375758 L51.6923462,465 Z M51.6923462,492.175758 L64.4404878,482.963636 L58.3535373,478.587879 L45.7202439,487.8 L51.6923462,492.175758 Z M39.7481415,492.175758 L27,482.963636 L33.0869505,478.587879 L45.7202439,487.8 L39.7481415,492.175758 Z M53.0705237,494.018183 L51.6923462,495.054545 L50.4290169,494.018183 L45.7202439,490.678788 L41.0114709,494.018183 L39.7481415,495.054545 L38.3699641,494.018183 L33.0869505,490.218182 L33.0869505,493.787879 L45.7202439,503 L58.3535373,493.787879 L58.3535373,490.218182 L53.0705237,494.018183 Z" id="Combined-Shape"></path>
        </g>
    </g>
</svg>
