<?xml version="1.0" encoding="UTF-8"?>
<svg width="45px" height="33px" viewBox="0 0 45 33" version="1.1" xmlns="http://www.w3.org/2000/svg" xmlns:xlink="http://www.w3.org/1999/xlink">
    <!-- Generator: Sketch 41.2 (35397) - http://www.bohemiancoding.com/sketch -->
    <title>noun_557772</title>
    <desc>Created with Sketch.</desc>
    <defs></defs>
    <g id="Page-1" stroke="none" stroke-width="1" fill="none" fill-rule="evenodd">
        <g id="Option-E-Mobile" transform="translate(-26.000000, -813.000000)" fill="#F40026">
            <g id="noun_557772" transform="translate(26.000000, 813.000000)">
                <g id="Group">
                    <path d="M22.5,0.247958333 C10.3371429,0.247958333 0.441734694,10.1250417 0.441734694,22.265375 C0.441734694,25.7024167 1.21362245,28.9950833 2.73581633,32.0521667 C2.88734694,32.3569583 3.15596939,32.5875 3.48061224,32.6915417 C3.8052551,32.795125 4.15790816,32.7644167 4.45913265,32.6044583 L9.16484694,30.111125 C9.78153061,29.7847917 10.0157143,29.0212083 9.68877551,28.406125 C9.36137755,27.7910417 8.59637755,27.5568333 7.98061224,27.883625 L4.45821429,29.7499583 C3.46867347,27.3835833 2.96816327,24.8714583 2.96816327,22.265375 C2.96816327,18.874625 3.84153061,15.6841667 5.37290816,12.9039167 L6.32066327,13.6367917 C6.55071429,13.814625 6.82346939,13.9007917 7.09346939,13.9007917 C7.47091837,13.9007917 7.84423469,13.7325833 8.09311224,13.4122083 C8.52061224,12.86175 8.42005102,12.06975 7.86811224,11.6430417 L6.73852041,10.7694583 C10.0547449,6.25166667 15.2692347,3.20925 21.200051,2.81783333 L21.200051,3.89904167 C21.200051,4.59525 21.7657653,5.15991667 22.4632653,5.15991667 C23.1607653,5.15991667 23.7264796,4.59525 23.7264796,3.89904167 L23.7264796,2.811875 C29.7298469,3.18541667 35.0040306,6.276875 38.3303571,10.8661667 L37.3261224,11.6425833 C36.7746429,12.0688333 36.6740816,12.8612917 37.1011224,13.41175 C37.35,13.7325833 37.7233163,13.9003333 38.1007653,13.9003333 C38.3707653,13.9003333 38.6430612,13.8141667 38.8735714,13.6363333 L39.6854082,13.0084167 C41.1809694,15.7639167 42.0313776,18.91725 42.0313776,22.2649167 C42.0313776,24.8856667 41.5253571,27.410625 40.5257143,29.788 L36.6047449,27.8652917 C35.9788776,27.5582083 35.2216837,27.8167083 34.9140306,28.4409583 C34.6063776,29.066125 34.864898,29.8214583 35.4912245,30.129 L40.5762245,32.6223333 C40.7553061,32.7103333 40.9454082,32.7515833 41.1322959,32.7515833 C41.5969898,32.7515833 42.0437755,32.4949167 42.2646429,32.05125 C43.7868367,28.994625 44.5587245,25.7019583 44.5587245,22.2644583 C44.5582653,10.1245833 34.6628571,0.247958333 22.5,0.247958333 Z" id="Shape"></path>
                    <path d="M24.1085204,19.344875 L14.0478061,6.60045833 C13.8172959,6.3085 13.4012755,6.23975 13.0890306,6.44095833 C12.7763265,6.642625 12.6684184,7.04870833 12.8401531,7.37825 L20.3106122,21.7305 C20.3188776,21.747 20.3280612,21.7630417 20.3381633,21.778625 C20.8125,22.5408333 21.5090816,22.946 22.262602,22.946 C22.6271939,22.946 23.005102,22.851125 23.3779592,22.655875 C23.9455102,22.3584167 24.3270918,21.899625 24.4827551,21.329 C24.6503571,20.7134583 24.5305102,20.0145 24.1544388,19.4104167 C24.1402041,19.3875 24.125051,19.3655 24.1085204,19.344875 Z" id="Shape"></path>
                </g>
            </g>
        </g>
    </g>
</svg>
